<?xml version="1.0" standalone="no"?><!DOCTYPE svg PUBLIC "-//W3C//DTD SVG 1.1//EN" "http://www.w3.org/Graphics/SVG/1.1/DTD/svg11.dtd"><svg t="1666169304891" class="icon" viewBox="0 0 1024 1024" version="1.1" xmlns="http://www.w3.org/2000/svg" p-id="3611" xmlns:xlink="http://www.w3.org/1999/xlink" width="2000" height="2000"><path d="M1024 512c0 282.7776-229.2224 512-512 512S0 794.7776 0 512 229.2224 0 512 0s512 229.2224 512 512z m-372.736-194.9184L512 456.3456l-139.264-139.264A39.424 39.424 0 0 0 317.0816 372.736L456.3456 512l-139.264 139.264a39.424 39.424 0 1 0 55.6544 55.6544l139.264-139.264 139.264 139.264a39.424 39.424 0 1 0 55.6544-55.6544L567.6544 512l139.264-139.264a39.424 39.424 0 0 0-55.6544-55.6544z" p-id="3612" data-spm-anchor-id="a313x.7781069.0.i4" class="selected" fill="#E84545"></path></svg>